<?xml version="1.0" encoding="UTF-8" standalone="no"?>
<!-- Created with Inkscape (http://www.inkscape.org/) -->

<svg
   version="1.1"
   id="svg1"
   width="512"
   height="512"
   viewBox="0 0 512 512.00001"
   sodipodi:docname="favicon.svg"
   inkscape:version="1.4.3 (0d15f75042, 2025-12-25)"
   xmlns:inkscape="http://www.inkscape.org/namespaces/inkscape"
   xmlns:sodipodi="http://sodipodi.sourceforge.net/DTD/sodipodi-0.dtd"
   xmlns="http://www.w3.org/2000/svg"
   xmlns:svg="http://www.w3.org/2000/svg">
  <defs
     id="defs1" />
  <sodipodi:namedview
     id="namedview1"
     pagecolor="#ffffff"
     bordercolor="#000000"
     borderopacity="0.25"
     inkscape:showpageshadow="2"
     inkscape:pageopacity="0.0"
     inkscape:pagecheckerboard="0"
     inkscape:deskcolor="#d1d1d1"
     inkscape:clip-to-page="false"
     inkscape:zoom="0.90509668"
     inkscape:cx="186.16796"
     inkscape:cy="306.04465"
     inkscape:window-width="1566"
     inkscape:window-height="832"
     inkscape:window-x="0"
     inkscape:window-y="0"
     inkscape:window-maximized="1"
     inkscape:current-layer="g317" />
  <g
     inkscape:groupmode="layer"
     inkscape:label="Image"
     id="g1"
     transform="translate(260.11374,-169.92511)">
    <rect
       style="fill:#ffffff;fill-opacity:1;stroke-width:1"
       id="rect318"
       width="512"
       height="512"
       x="-260.11374"
       y="169.92511" />
    <g
       id="g317"
       transform="matrix(1.008493,0,0,0.97931035,-620.22014,60.711478)">
      <path
         style="fill:#000000"
         d="m 478.20764,526.25915 c 2.4023,-8.17043 10.0569,-35.94597 11.1217,-40.35624 0.7303,-3.025 3.4322,-13.6 6.0042,-23.5 19.5073,-75.08655 23.6726,-90.92074 24.0985,-91.6099 0.2663,-0.43095 -2.3567,-2.94502 -5.829,-5.58683 -3.4723,-2.6418 -15.6502,-12.67827 -27.062,-22.30327 -11.4118,-9.625 -26.2451,-21.9383 -32.9629,-27.36288 -6.7177,-5.42459 -16.714,-14.02624 -22.214,-19.11479 -5.5,-5.08854 -14.275,-12.48143 -19.5,-16.42863 -5.225,-3.9472 -9.63,-7.54795 -9.7888,-8.00166 -0.3814,-1.08931 6.6996,-1.83397 33.7888,-3.55331 12.375,-0.78544 30.6,-2.12121 40.5,-2.96838 16.4565,-1.40824 73.9362,-5.57035 76.9278,-5.57035 1.5924,0 2.9086,-3.07155 11.1414,-26 3.6535,-10.175 7.222,-19.625 7.9301,-21 0.708,-1.375 4.2173,-10.6 7.7984,-20.5 3.581,-9.9 8.3681,-22.725 10.6379,-28.5 8.0088,-20.37625 9.9921,-25.63262 14.693,-38.94097 l 4.7478,-13.44098 2.1401,6.94098 c 1.1771,3.81753 3.0591,8.74097 4.1824,10.94097 1.1232,2.2 3.8599,9.175 6.0814,15.5 5.9592,16.96642 19.3177,52.83363 27.7471,74.5 4.0655,10.45 9.0738,23.8375 11.1294,29.75 3.4382,9.88964 3.9417,10.74943 6.2903,10.74284 1.4041,-0.004 11.5529,0.66039 22.5529,1.47629 11,0.81589 30.35,2.18698 43,3.04685 12.65,0.85988 33.8,2.43848 47,3.50801 13.2,1.06952 27.4674,2.22172 31.7054,2.56043 l 7.7053,0.61584 -12.7053,10.56978 c -6.988,5.81337 -15.2354,12.85581 -18.3277,15.64987 -3.0923,2.79405 -7.5923,6.53318 -10,8.30917 -7.6597,5.64996 -17.2961,13.4668 -29.9207,24.27092 -6.748,5.775 -14.5614,12.26475 -17.3631,14.42167 -2.8016,2.15692 -10.3696,8.31546 -16.8177,13.68565 -6.4481,5.37018 -12.4752,10.18447 -13.3935,10.69841 -1.7651,0.98775 1.5277,14.47833 21.526,88.19427 3.8048,14.025 8.799,32.475 11.0981,41 2.2992,8.525 5.18,18.7625 6.4019,22.75 1.2218,3.9875 1.9672,7.23054 1.6564,7.20675 -0.3108,-0.0238 -5.2901,-3.39177 -11.0651,-7.48439 -10.8216,-7.66907 -55.4733,-37.83649 -97.2922,-65.73225 l -23.7923,-15.87086 -7.2077,4.85579 c -3.9643,2.67068 -17.5578,11.86665 -30.2078,20.4355 -23.487,15.90958 -32.9667,22.25994 -65.5,43.87783 -10.175,6.76112 -20.908,14.06621 -23.8511,16.23353 -3.9766,2.92835 -5.211,3.46376 -4.8054,2.08434 z m 52.8021,-60.87317 c 6.7949,-4.61776 18.1244,-12.35304 25.1768,-17.1895 7.0523,-4.83646 16.6157,-11.26857 21.252,-14.29357 4.6363,-3.025 13.5753,-8.9875 19.8646,-13.25 6.2893,-4.2625 11.8993,-7.75 12.4666,-7.75 0.5674,0 7.0082,3.99197 14.313,8.87105 59.3748,39.65829 79.8757,53.12895 80.8566,53.12895 0.6263,0 0.9261,-0.5625 0.6662,-1.25 -0.6394,-1.69093 -6.4194,-22.75247 -13.2416,-48.25 -8.9965,-33.62382 -10.5745,-39.50725 -13.009,-48.5 -4.1261,-15.24205 -4.1625,-14.29427 0.7054,-18.37229 5.6301,-4.7166 31.9564,-26.27715 36.7871,-30.12771 5.9269,-4.72432 41.2023,-34.1447 44.3821,-37.01558 1.5759,-1.42284 2.7009,-2.73634 2.5,-2.91889 -0.5107,-0.46387 -26.596,-3.35212 -36.8654,-4.08185 -4.675,-0.3322 -18.175,-1.44729 -30,-2.47798 -11.825,-1.03068 -27.2118,-2.18125 -34.193,-2.55682 -12.533,-0.67426 -12.7053,-0.71604 -13.6773,-3.31587 -3.8248,-10.23059 -11.8472,-32.21971 -14.6418,-40.13301 -8.2425,-23.33956 -11.9389,-33.42191 -17.0476,-46.5 -5.6185,-14.38306 -6.993,-17.28837 -7.7922,-16.47104 -0.2533,0.25907 -4.1296,10.37104 -8.6138,22.47104 -4.4842,12.1 -9.6535,25.825 -11.4873,30.5 -5.916,15.08202 -10.3709,27.30524 -13.0555,35.82068 -1.4428,4.57637 -3.4515,10.25291 -4.4638,12.61454 l -1.8405,4.29387 -10.3436,0.68489 c -5.689,0.3767 -18.2186,1.32939 -27.8436,2.11709 -9.625,0.78771 -24.925,1.89664 -34,2.46431 -14.7881,0.92503 -40.9178,3.79439 -41.8691,4.59772 -0.5671,0.47897 1.3784,2.18421 14.8691,13.03274 6.875,5.52852 16.5833,13.61188 21.5741,17.96301 4.9908,4.35113 12.8105,11.06115 17.3771,14.91115 4.5667,3.85 12.157,10.31124 16.8673,14.3583 4.7104,4.04707 10.3242,8.46925 12.4751,9.82706 4.6808,2.95487 5.1228,-0.89958 -4.1639,36.31464 -7.1349,28.59145 -8.6793,34.59547 -16.1149,62.64529 -2.2082,8.32991 -4.0148,16.16216 -4.0148,17.40499 0,2.15486 0.088,2.18011 1.8956,0.54421 1.0425,-0.94351 7.455,-5.49365 14.25,-10.11142 z"
         id="path316" />
      <path
         style="fill:#000000"
         d="m 606.32855,381.27359 c -6.6408,-4.55032 -16.7008,-9.25202 -27.5092,-12.85686 -6.0461,-2.01652 -11.0696,-3.74456 -11.1634,-3.8401 -0.094,-0.0956 0.6805,-5.34872 1.7206,-11.67372 1.0401,-6.325 1.9012,-12.7375 1.9135,-14.25 0.012,-1.5125 0.2382,-2.75 0.5022,-2.75 0.7001,0 18.5601,7.23115 29.1303,11.79432 l 9.1103,3.93289 5.3897,-2.20734 c 2.9644,-1.21403 8.0898,-3.55366 11.3898,-5.19918 9.9911,-4.98198 22.5688,-9.65817 23.4228,-8.70826 0.4389,0.48816 1.3369,5.61257 1.9956,11.38757 0.6587,5.775 1.4388,12.092 1.7335,14.03779 0.535,3.53203 0.5269,3.54059 -4.9505,5.26719 -9.46,2.98203 -29.9472,11.54885 -34.7328,14.52374 l -4.5844,2.84979 z"
         id="path315" />
      <path
         style="fill:#000000"
         d="m 553.36293,380.90291 c 0.8521,-11.74439 0.8492,-13.01263 -0.041,-18.05559 -0.4593,-2.60347 -0.2024,-3.90822 0.9594,-4.87245 1.3261,-1.10055 1.5868,-3.90471 1.5868,-17.07196 0,-11.40534 -0.3451,-16.03055 -1.25,-16.75275 -0.6875,-0.54871 -4.7327,-2.29131 -8.9892,-3.87245 -4.2565,-1.58114 -7.744,-3.1368 -7.75,-3.45702 -0.01,-0.32022 1.4517,-1.06896 3.2392,-1.66387 1.7875,-0.59491 7.975,-3.11764 13.75,-5.60607 11.8165,-5.0917 30.8221,-12.86463 50.5396,-20.66975 l 5.0396,-1.99492 17.4604,7.34414 c 9.6032,4.03927 26.1229,10.65488 36.7104,14.70136 17.0244,6.50663 21.9908,8.97133 18.0774,8.97133 -1.2491,0 -22.514,8.04304 -42.3274,16.00952 -6.6,2.6537 -15.979,6.28756 -20.8422,8.07525 -10.2647,3.77323 -6.4838,4.5015 -35.0206,-6.74558 -10.3746,-4.08887 -20.1847,-7.69868 -21.8003,-8.0218 l -2.9374,-0.58749 0.5534,15.88505 c 0.3044,8.73678 0.5735,18.58505 0.598,21.88505 0.024,3.3 0.6981,10.55775 1.4969,16.12834 0.7987,5.57058 1.4523,10.29558 1.4524,10.5 10e-5,0.20441 -2.5351,0.37166 -5.6337,0.37166 h -5.6338 z"
         id="path314" />
      <g
         id="g316"
         transform="matrix(0.7429293,0,0,0.82983567,164.07229,62.409264)">
        <path
           style="fill:#000000"
           d="m 463.01168,578.19979 c -5.3482,-1.03305 -8.1875,-10.11414 -4.7132,-15.07437 2.3751,-3.39103 9.5675,-3.15129 12.3707,0.41235 2.0245,2.57372 2.6957,7.57772 1.4514,10.82034 -0.5276,1.37475 -5.671,4.82133 -6.5792,4.40862 -0.1648,-0.0749 -1.3032,-0.33003 -2.5297,-0.56694 z"
           id="path313" />
        <path
           style="fill:#000000"
           d="m 891.53958,634.69575 c -0.3195,-37.86907 -0.3882,-38.37394 -5.541,-40.72168 -1.293,-0.58914 -3.4547,-1.07116 -4.8038,-1.07116 -1.5745,0 -2.453,-0.56889 -2.453,-1.58848 0,-1.37611 1.4818,-1.54322 11.0841,-1.25 10.9439,0.3342 11.119,0.37753 13.8383,3.42328 l 2.7542,3.0848 2.9117,-2.3422 c 4.0367,-3.24715 12.6604,-6.3274 17.7148,-6.3274 5.3925,0 10.6624,2.81566 13.1269,7.0137 l 1.93,3.2875 -2.7931,2.22717 -2.7931,2.22716 -4.1369,-2.36572 c -7.4684,-4.2709 -18.0702,-2.82064 -23.7655,3.25095 l -2.3714,2.52808 v 31.66558 31.66558 l -7.2022,0.29284 -7.2021,0.29285 z"
           id="path312" />
        <path
           style="fill:#000000"
           d="m 636.49178,669.21358 c -1.6234,-0.42422 -1.75,-2.91612 -1.75,-34.43365 0,-28.71259 -0.2398,-34.44007 -1.5479,-36.96964 -1.6174,-3.12775 -4.8875,-4.90738 -9.0172,-4.90738 -1.4977,0 -2.4349,-0.57736 -2.4349,-1.5 0,-1.23399 1.785,-1.5 10.0657,-1.5 10.4134,0 13.2678,0.76605 16.0903,4.31817 l 1.656,2.08409 3.9968,-2.76972 c 4.3786,-3.03439 11.9112,-5.63254 16.3299,-5.63254 4.7862,0 10.6785,2.9681 12.8421,6.46893 1.1106,1.79693 2.0192,3.52088 2.0192,3.83101 0,1.29924 -6.2437,4.92634 -6.8534,3.98131 -1.42,-2.20092 -7.3222,-4.28125 -12.1466,-4.28125 -5.3,0 -9.8985,1.7696 -13.75,5.29129 -2.2445,2.05231 -2.25,2.13634 -2.25,34.38302 v 32.32569 l -5.75,-0.116 c -3.1625,-0.0638 -6.5375,-0.3218 -7.5,-0.57333 z"
           id="path311" />
        <path
           style="fill:#000000"
           d="m 458.71788,637.65292 c -0.013,-17.7375 -0.431,-34.00543 -0.9287,-36.15096 -1.1957,-5.15464 -3.8464,-7.62826 -8.9007,-8.30618 -2.571,-0.34486 -4.1467,-1.07617 -4.1467,-1.92454 0,-1.06207 2.1334,-1.36833 9.5321,-1.36833 12.2492,0 15.9334,1.41286 17.3932,6.67012 0.6569,2.36562 1.0656,17.11568 1.0691,38.57988 l 0.01,34.75 h -7 -7 z"
           id="path310" />
        <path
           style="fill:#000000"
           d="m 375.71788,637.69672 c -0.013,-17.7616 -0.4396,-34.09381 -0.9476,-36.29381 -1.1734,-5.0807 -5.0289,-8.5 -9.5843,-8.5 -2.3949,0 -3.4442,-0.45701 -3.4442,-1.5 0,-1.23399 1.785,-1.5 10.0657,-1.5 10.1611,0 12.6589,0.63489 16.5989,4.21905 2.16,1.96498 2.1726,1.96368 5.9727,-0.61858 6.3441,-4.31093 12.7291,-5.93706 20.8889,-5.31994 11.8452,0.89585 19.8119,6.43622 23.1975,16.13249 1.5492,4.43656 1.7763,8.9228 1.7763,35.08698 v 30 l -7.1965,0.29273 -7.1964,0.29273 -0.3036,-30.79273 c -0.2935,-29.77539 -0.3783,-30.9327 -2.567,-35.02927 -4.5179,-8.45627 -16.4649,-11.24985 -25.4905,-5.96049 -7.5486,4.42376 -7.1502,2.29107 -7.2006,38.54602 l -0.045,32.65101 -7.25,0.29381 -7.25,0.29381 z"
           id="path309" />
        <path
           style="fill:#000000"
           d="m 825.20088,668.5965 c -8.5998,-4.10775 -12.4412,-10.54794 -12.4535,-20.87849 -0.01,-5.91865 1.0452,-8.66443 5.0827,-13.26292 5.8754,-6.69172 13.7034,-9.21964 31.7938,-10.26725 l 10.382,-0.60123 -0.5287,-7.71406 c -0.9857,-14.38006 -6.059,-20.95824 -16.1697,-20.9659 -7.434,-0.006 -12.6905,2.97226 -16.0089,9.06933 -2.4965,4.58684 -3.0267,5.01222 -5.8999,4.73334 -2.8065,-0.2724 -3.1938,-0.69484 -3.4896,-3.80641 -0.593,-6.2394 1.4511,-10.76467 5.8841,-13.0262 6.0245,-3.07351 18.131,-4.46453 27.9484,-3.21123 9.3911,1.19888 13.8458,3.95621 17.7886,11.01054 4.2255,7.56033 5.1755,15.6137 5.1942,44.03439 l 0.017,26.3075 -4.2189,-0.3075 c -3.7134,-0.27065 -4.5625,-0.82026 -7.0854,-4.58616 l -2.8664,-4.27866 -3.4281,3.00996 c -5.8332,5.12163 -9.2598,6.38423 -18.4012,6.78038 -7.3783,0.31975 -9.1652,0.0506 -13.5409,-2.03943 z m 26.2182,-6.77942 c 7.3232,-3.5451 8.3227,-5.8823 8.3227,-19.46143 v -11.73853 l -7.9454,0.54459 c -15.3275,1.05058 -23.0432,6.85579 -23.0509,17.34332 -0.01,12.0012 11.4654,18.73787 22.6736,13.31205 z"
           id="path308" />
        <path
           style="fill:#000000"
           d="m 579.62398,669.52233 c -15.0127,-5.36482 -22.8585,-18.79181 -22.8585,-39.11942 0,-26.21113 12.4858,-41.61111 33.737,-41.61111 19.9513,0 30.6094,11.28713 31.974,33.86111 l 0.5591,9.25 h -25.785 -25.785 l 0.6592,6.43406 c 1.7668,17.24557 9.4059,25.56594 23.4725,25.56594 7.6142,0 12.1483,-2.11076 17.8714,-8.3196 4.0474,-4.39089 4.175,-4.44626 5.8868,-2.55467 1.6911,1.86858 1.5298,2.14814 -4.8025,8.3267 -5.0684,4.94533 -7.7551,6.75039 -11.8633,7.97039 -6.3609,1.88899 -18.0509,1.98863 -23.0657,0.1966 z m 26.798,-51.87413 c -1.0838,-12.82159 -4.1095,-18.5981 -11.1497,-21.28679 -5.7799,-2.20737 -10.2373,-1.34602 -14.5078,2.8035 -3.9475,3.83563 -6.7067,9.62207 -7.525,15.78048 -0.3257,2.45164 -0.7847,5.69502 -1.02,7.20752 l -0.4277,2.75 h 17.6217 17.6217 z"
           id="path307" />
        <path
           style="fill:#000000"
           d="m 300.0855,669.86149 c -9.49421,-1.87836 -18.80406,-8.952 -22.21375,-16.87803 -4.8408,-11.25275 -5.25853,-14.84427 -5.96102,-51.25161 l -0.66898,-34.67106 -2.42431,-2.57894 c -1.78613,-1.90005 -3.43141,-2.57894 -6.25,-2.57894 -3.18581,0 -3.82569,-0.3417 -3.82569,-2.04291 0,-1.96946 0.40019,-2.02213 11.1309,-1.46513 6.122,0.31778 11.92467,1.00259 12.89482,1.5218 3.51512,1.88124 3.97338,6.44021 4.00917,39.88546 0.0447,41.77552 1.19968,49.18151 8.86547,56.84729 5.53131,5.53131 9.4402,6.75349 21.59964,6.75349 13.41663,0 18.84103,-1.74398 23.93513,-7.69525 6.8229,-7.97103 6.9115,-8.62261 7.5186,-55.30475 l 0.5463,-42 3.75,-0.31037 3.75,-0.31036 -0.001,36.81036 c -10e-4,27.75529 -0.3593,38.84425 -1.4565,45.07842 -1.499,8.51783 -5.0525,16.96455 -8.867,21.07711 -3.1962,3.44601 -9.9194,7.13475 -15.91117,8.72979 -5.71596,1.52163 -23.53254,1.74632 -30.42024,0.38363 z"
           id="path306" />
        <path
           style="fill:#000000"
           d="m 789.08198,670.9453 c -8.461,-2.01602 -13.8224,-7.92314 -14.833,-16.34285 -0.3433,-2.85975 -0.4853,-17.01308 -0.3157,-31.45185 l 0.3085,-26.25232 -3.264,-0.61159 c -1.7951,-0.33638 -4.3826,-0.39774 -5.75,-0.13636 -1.8947,0.3622 -2.486,0.052 -2.486,-1.3043 0,-0.97875 -0.2731,-2.49135 -0.607,-3.36133 -0.5126,-1.33597 0.3421,-1.58179 5.5,-1.58179 h 6.107 v -6.75 c 0,-5.07651 0.5247,-7.61774 2.105,-10.25 3.6205,-6.03049 5.9754,-8 9.5656,-8 h 3.3254 v 12.5 12.5 h 9.5 9.5 v 3 3 l -7.25,0.0136 c -3.9875,0.008 -8.2625,0.285 -9.5,0.61664 l -2.25,0.60297 v 28.91549 c 0,33.04942 0.3187,34.8297 6.714,37.50986 3.216,1.34776 4.7492,1.40978 10.1839,0.41193 7.8552,-1.44225 9.9971,-0.20545 4.9856,2.87883 -6.8617,4.22302 -14.7265,5.71726 -21.5433,4.09302 z"
           id="path305" />
        <path
           style="fill:#000000"
           d="m 708.24178,670.01294 c -8.3101,-2.4203 -13.6391,-5.36548 -17.3447,-9.58591 -3.148,-3.58537 -3.1553,-3.62034 -3.1553,-15.05892 0,-9.13326 0.2833,-11.4652 1.393,-11.4652 1.4218,0 2.607,2.06588 2.607,4.54427 0,3.50359 4.644,13.19907 8.1375,16.98911 11.5437,12.52335 35.775,13.39497 43.6111,1.56874 3.4035,-5.13665 3.1434,-13.304 -0.6123,-19.2262 -3.0274,-4.77363 -7.6427,-8.12492 -27.976,-20.31395 -14.4478,-8.66087 -22.3279,-15.21112 -25.0405,-20.81442 -2.6127,-5.39729 -2.9,-17.28331 -0.5769,-23.87182 1.6943,-4.80521 7.2737,-11.1577 11.9571,-13.61393 11.4165,-5.9874 29.1334,-5.42018 43.0154,1.37717 9.3406,4.57365 10.1613,6.04001 10.9763,19.61103 0.6755,11.24862 0.6219,11.75 -1.2571,11.75 -1.5745,0 -2.0875,-0.90993 -2.5932,-4.59979 -0.9966,-7.27053 -6.3098,-16.23386 -11.6196,-19.60197 -20.1281,-12.76765 -44.6572,-2.37282 -39.0496,16.54822 1.8069,6.09682 7.4288,10.73887 27.6609,22.83994 9.8268,5.87752 19.7397,12.29109 22.0286,14.25237 10.6857,9.15596 12.5285,24.98556 4.4008,37.80165 -5.5629,8.77176 -15.4133,12.80434 -30.994,12.68834 -5.9507,-0.0443 -11.837,-0.73195 -15.5685,-1.81873 z"
           id="path304" />
        <path
           style="fill:#000000"
           d="m 515.74178,670.67381 c 0,-0.676 -4.2398,-11.8135 -9.4217,-24.75 -5.1819,-12.93649 -11.2477,-28.2459 -13.4796,-34.0209 -4.5401,-11.74771 -8.4815,-17.28576 -13.6264,-19.14618 -4.1583,-1.50365 -4.5792,-3.81117 -0.7223,-3.95978 8.2168,-0.31661 13.075,1.2153 19.1746,6.04624 4.7528,3.76428 8.5603,10.93905 17.1504,32.3177 3.7746,9.39397 7.2172,17.43423 7.6502,17.86723 0.433,0.43301 4.9652,-9.65553 10.0716,-22.41896 13.1059,-32.75823 12.7635,-32.13827 17.9532,-32.51375 2.3375,-0.16912 4.25,-0.0438 4.25,0.27852 0,0.32231 -1.2983,3.16068 -2.8851,6.3075 -2.8976,5.74656 -26.7569,64.45446 -29.0465,71.47148 -1.0437,3.19877 -1.6531,3.75 -4.146,3.75 -1.6448,0 -2.9224,-0.53735 -2.9224,-1.2291 z"
           id="path272" />
      </g>
    </g>
  </g>
</svg>
